<?xml version="1.0" standalone="no"?>
<!DOCTYPE svg PUBLIC "-//W3C//DTD SVG 20010904//EN"
 "http://www.w3.org/TR/2001/REC-SVG-20010904/DTD/svg10.dtd">
<svg version="1.0" xmlns="http://www.w3.org/2000/svg"
 width="200.000000pt" height="197.000000pt" viewBox="0 0 200.000000 197.000000"
 preserveAspectRatio="xMidYMid meet">

<g transform="translate(0.000000,197.000000) scale(0.100000,-0.100000)"
fill="#000000" stroke="none">
<path d="M822 1943 c-19 -4 -23 -9 -19 -26 6 -22 97 -541 97 -549 0 -3 14 -3
30 0 23 3 30 9 30 26 -2 51 -96 550 -105 551 -5 1 -21 0 -33 -2z"/>
<path d="M1140 1940 c0 -11 -86 -506 -95 -546 -4 -18 1 -23 25 -26 17 -3 30
-4 30 -2 0 1 23 129 50 284 28 156 49 284 48 286 -2 1 -15 5 -31 9 -18 5 -27
3 -27 -5z"/>
<path d="M509 1821 l-22 -18 132 -231 c168 -293 150 -268 190 -248 l32 17 -38
67 c-156 277 -249 432 -259 432 -6 0 -22 -8 -35 -19z"/>
<path d="M1328 1602 c-75 -130 -140 -245 -143 -254 -4 -11 1 -20 15 -28 12 -6
23 -10 24 -8 1 2 67 115 145 251 135 234 142 249 125 262 -11 8 -21 14 -24 15
-3 0 -67 -107 -142 -238z"/>
<path d="M259 1611 c-12 -16 -20 -33 -18 -38 2 -4 100 -89 218 -189 l214 -181
30 34 c17 20 26 38 21 43 -44 41 -429 360 -435 360 -5 0 -18 -13 -30 -29z"/>
<path d="M1539 1462 c-102 -86 -201 -170 -219 -185 -30 -26 -32 -30 -17 -44
15 -15 18 -15 34 -2 10 9 104 87 208 174 243 203 221 181 205 199 -7 9 -15 16
-19 16 -3 -1 -90 -72 -192 -158z"/>
<path d="M99 1342 c-28 -73 -40 -65 251 -172 l265 -97 18 45 c10 25 14 48 10
52 -4 4 -114 46 -243 93 -129 47 -248 90 -263 96 -25 10 -29 8 -38 -17z"/>
<path d="M1384 1083 c21 -110 14 -178 -28 -267 -37 -81 -97 -141 -184 -183
-71 -36 -81 -38 -166 -37 -119 1 -185 26 -266 101 -58 53 -120 154 -120 195 0
10 -5 18 -12 18 -11 0 -529 -188 -536 -194 -6 -6 39 -116 48 -116 5 0 124 42
264 93 141 52 256 91 255 88 0 -3 -94 -85 -210 -181 -115 -96 -209 -179 -209
-185 0 -5 19 -32 43 -58 l42 -49 204 172 c112 95 202 166 199 159 -3 -8 -63
-113 -132 -233 -69 -120 -125 -220 -123 -222 8 -8 122 -74 128 -74 4 0 62 97
129 215 68 119 124 214 125 213 1 -2 -17 -111 -41 -243 -23 -132 -39 -243 -36
-247 9 -9 150 -34 156 -27 3 2 22 101 42 219 33 192 54 274 54 213 0 -12 16
-110 35 -219 19 -108 35 -201 35 -205 0 -12 64 -10 125 5 59 13 58 -14 11 254
-21 116 -28 179 -20 168 7 -10 56 -94 109 -187 l97 -169 67 35 c119 64 117 41
11 227 -51 90 -96 168 -99 173 -6 12 1 7 167 -132 l135 -113 41 47 c22 25 52
62 65 81 20 30 22 37 10 46 -36 27 -249 208 -249 212 0 3 158 -52 270 -95 64
-24 58 -29 99 92 35 103 47 88 -120 147 -61 22 -118 44 -127 50 -12 6 35 9
141 10 l157 0 0 115 0 115 -296 0 -296 0 6 -27z"/>
<path d="M34 1015 c-3 -19 -3 -46 0 -60 l6 -25 285 0 285 0 0 60 0 60 -285 0
-284 0 -7 -35z"/>
</g>
</svg>
